<?xml version="1.0" standalone="no"?>
<!DOCTYPE svg PUBLIC "-//W3C//DTD SVG 20010904//EN"
 "http://www.w3.org/TR/2001/REC-SVG-20010904/DTD/svg10.dtd">
<svg version="1.0" xmlns="http://www.w3.org/2000/svg"
 width="912.000000pt" height="912.000000pt" viewBox="0 0 912.000000 912.000000"
 preserveAspectRatio="xMidYMid meet">
<metadata>
Created by potrace 1.11, written by Peter Selinger 2001-2013
</metadata>
<g transform="translate(0.000000,912.000000) scale(0.100000,-0.100000)"
fill="#000000" stroke="none">
<path d="M4678 9094 c-3 -3 -84 -7 -179 -10 -96 -3 -199 -11 -229 -19 -30 -7
-86 -19 -125 -26 -86 -15 -293 -66 -320 -79 -11 -5 -40 -16 -65 -24 -25 -8
-74 -28 -110 -44 -36 -17 -94 -42 -130 -57 -75 -31 -177 -82 -270 -135 -178
-101 -232 -134 -243 -144 -7 -7 -37 -30 -67 -53 -30 -23 -91 -74 -135 -113
-44 -40 -105 -91 -135 -114 -142 -105 -257 -215 -360 -346 -136 -171 -131
-163 -197 -292 -8 -16 -19 -28 -24 -28 -5 0 -9 -6 -9 -13 0 -20 -39 -97 -50
-97 -4 0 -15 6 -22 13 -23 22 -67 47 -83 47 -9 0 -28 11 -43 25 -15 14 -33 25
-40 25 -8 0 -36 11 -64 25 -27 14 -75 29 -106 35 -86 16 -166 34 -177 42 -9 6
-65 11 -92 9 -6 -1 -13 -11 -15 -23 -2 -16 -12 -25 -33 -29 -27 -6 -28 -7 -5
-8 14 -1 67 -12 119 -25 51 -14 99 -22 105 -20 7 3 26 -2 42 -11 16 -8 40 -15
53 -15 27 0 268 -115 317 -152 186 -136 468 -397 449 -416 -3 -3 -19 -7 -37
-9 -18 -2 -35 -8 -38 -13 -9 -15 -40 -1 -40 19 -1 38 -39 83 -105 126 -72 46
-97 52 -103 23 -3 -18 15 -40 62 -73 22 -16 96 -124 96 -140 0 -2 -16 -13 -35
-25 l-36 -22 -67 35 c-37 19 -87 41 -112 48 -25 7 -54 18 -65 25 -28 17 -175
64 -200 64 -12 0 -25 4 -31 10 -5 5 -38 13 -73 16 -58 7 -63 6 -59 -12 2 -10
12 -20 23 -22 11 -2 29 -7 40 -12 28 -13 156 -60 180 -66 51 -14 271 -120 298
-144 16 -16 16 -19 -8 -66 -14 -27 -28 -64 -31 -81 -3 -18 -7 -33 -9 -33 -1 0
-17 8 -36 17 -38 19 -185 21 -203 3 -5 -5 -18 -10 -28 -10 -10 0 -46 -9 -80
-19 -35 -11 -83 -25 -108 -31 -25 -7 -63 -20 -85 -30 -22 -10 -89 -32 -150
-50 -60 -17 -117 -37 -125 -45 -8 -7 -50 -27 -92 -45 -42 -17 -96 -46 -120
-63 -24 -18 -50 -36 -59 -42 -131 -84 -179 -119 -243 -174 -80 -69 -108 -121
-66 -121 11 0 20 4 20 9 0 25 151 156 227 197 61 33 91 51 127 77 21 15 45 27
53 27 8 0 45 15 81 33 37 19 101 46 142 62 41 16 84 34 95 41 11 7 49 18 85
24 35 6 72 16 81 20 9 5 31 12 50 15 19 3 42 8 51 11 9 3 27 7 40 10 13 3 41
10 63 15 22 6 78 12 125 15 79 5 87 3 114 -19 33 -27 37 -21 -62 -92 -34 -25
-67 -45 -72 -45 -5 0 -15 -9 -22 -20 -7 -11 -17 -20 -22 -20 -8 0 -24 -12
-119 -90 -27 -22 -52 -40 -56 -40 -16 0 -111 -103 -111 -121 0 -11 -6 -22 -14
-25 -7 -3 -28 -26 -46 -50 -23 -33 -29 -49 -22 -56 8 -8 33 10 88 65 43 43 80
77 83 77 4 0 27 20 52 44 60 57 208 159 348 238 35 20 50 14 51 -21 0 -8 8
-20 18 -27 16 -13 15 -15 -8 -35 -14 -11 -38 -33 -55 -48 -16 -14 -48 -40 -69
-56 -58 -44 -195 -192 -236 -255 -8 -13 -29 -41 -47 -64 -107 -136 -380 -577
-426 -688 -9 -21 -18 -38 -21 -38 -3 0 -22 11 -42 25 -20 14 -45 25 -55 25
-24 0 -24 1 7 85 14 39 28 79 31 90 4 10 17 35 30 53 13 19 23 40 23 47 0 12
48 102 108 203 18 29 32 57 32 62 0 5 14 24 31 42 36 38 51 71 43 93 -8 21
-16 19 -50 -12 -42 -39 -61 -73 -60 -105 1 -16 -2 -28 -6 -28 -4 0 -8 6 -8 12
0 21 -36 -24 -89 -110 -28 -46 -51 -87 -51 -90 0 -4 -16 -38 -36 -77 -20 -38
-47 -99 -59 -135 -13 -36 -30 -78 -39 -95 -9 -16 -16 -36 -16 -43 0 -7 -7 -27
-17 -45 -9 -18 -21 -54 -27 -82 -7 -31 -17 -50 -26 -50 -7 0 -28 30 -46 66
-45 91 -85 130 -127 123 -84 -14 -82 -11 -39 -47 22 -18 49 -39 61 -47 12 -8
42 -57 67 -107 45 -95 52 -100 111 -101 23 -1 40 20 46 55 1 10 6 23 9 29 4 6
10 30 14 52 7 42 20 52 41 31 9 -9 16 -8 28 5 29 28 62 15 95 -39 18 -29 28
-35 48 -33 23 3 28 10 39 57 6 30 17 66 24 80 28 61 53 107 62 116 12 12 2
-135 -18 -255 -21 -125 -27 -239 -29 -485 -1 -194 7 -324 21 -347 2 -5 6 -27
9 -50 2 -24 9 -64 15 -91 6 -26 9 -53 6 -61 -3 -7 -2 -17 3 -22 5 -5 27 -57
49 -116 57 -153 186 -408 244 -481 l22 -28 -21 -17 c-24 -20 -68 -88 -78 -120
-11 -34 -41 -41 -197 -47 -78 -3 -169 -12 -203 -20 -123 -29 -426 -137 -460
-164 -6 -5 -51 -26 -99 -46 -131 -56 -294 -153 -404 -241 -54 -43 -100 -81
-103 -84 -3 -3 -23 -19 -45 -35 -22 -16 -64 -49 -92 -73 l-53 -44 0 -259 c0
-142 4 -259 8 -259 5 0 17 9 27 20 10 11 24 20 32 20 7 0 13 3 13 8 0 4 20 18
45 32 24 13 47 30 49 37 3 7 10 13 16 13 6 0 26 11 44 25 18 14 37 25 43 25 6
0 27 12 48 26 21 14 77 46 124 71 47 25 88 48 91 52 7 9 81 34 86 29 2 -3 -5
-13 -16 -23 -11 -10 -20 -24 -20 -31 0 -7 -7 -17 -14 -21 -18 -10 -126 -149
-126 -162 0 -4 -17 -30 -38 -57 -154 -195 -304 -517 -326 -699 -1 -11 -8 -42
-15 -70 -49 -208 -52 -485 -5 -579 7 -16 14 -35 14 -42 0 -22 88 -184 121
-223 59 -70 71 -81 90 -81 19 0 25 24 20 75 -7 71 56 270 104 326 13 16 26 38
30 49 3 11 13 20 22 20 11 0 13 -3 5 -12 -21 -27 -31 -149 -27 -348 4 -195 10
-242 33 -287 6 -11 7 -25 2 -33 -13 -22 18 -50 54 -50 17 0 44 7 60 15 15 8
36 15 45 15 9 0 29 7 45 15 15 8 33 15 40 15 6 0 28 11 48 25 20 14 46 25 56
25 11 0 25 7 32 15 7 8 16 15 21 15 5 0 42 20 82 44 39 24 82 47 94 50 12 4
37 22 55 39 19 18 46 38 61 44 44 20 143 101 240 196 49 48 93 87 98 87 16 0
9 -20 -22 -63 -16 -23 -55 -76 -85 -117 -29 -41 -54 -78 -54 -82 0 -5 -6 -8
-14 -8 -8 0 -17 -9 -21 -20 -7 -21 -219 -239 -270 -277 -16 -13 -39 -30 -50
-38 -47 -35 -97 -65 -109 -65 -8 0 -19 -7 -27 -16 -12 -14 1 -15 127 -12 121
3 145 6 182 26 54 28 56 28 36 -3 l-16 -25 64 0 c35 0 68 4 73 9 31 29 382
201 411 201 8 0 34 10 57 22 23 12 58 25 77 29 19 4 64 15 100 24 36 9 83 20
105 24 22 4 69 17 105 28 36 12 85 26 110 33 25 7 56 17 70 22 14 6 44 12 67
13 43 4 58 8 168 43 79 27 146 53 225 89 36 17 92 40 125 53 33 13 98 42 145
66 47 23 101 50 120 59 70 32 120 61 216 128 184 127 226 151 236 133 5 -8 14
-21 21 -28 7 -7 30 -35 50 -62 21 -28 52 -61 69 -75 43 -35 51 -44 116 -132
58 -78 155 -189 250 -286 60 -61 62 -79 16 -141 -14 -18 -41 -63 -60 -100 -19
-37 -46 -86 -59 -109 l-24 -43 49 0 c46 0 49 2 59 33 7 19 19 42 29 53 10 10
25 35 34 54 9 20 35 62 57 95 23 33 41 63 41 68 0 4 16 30 35 58 19 28 32 55
29 60 -3 5 0 9 5 9 6 0 23 19 38 43 15 23 31 45 36 48 4 3 17 30 28 60 11 30
32 68 45 86 13 17 24 36 24 42 0 6 3 11 8 11 4 0 13 12 20 28 6 15 37 65 67
112 30 46 55 88 55 93 0 5 18 30 40 56 22 26 40 52 40 57 0 5 20 36 45 69 24
33 47 72 50 87 4 15 14 30 23 33 9 3 34 41 54 84 50 105 60 112 97 72 l29 -31
-54 -81 c-30 -44 -54 -86 -54 -93 0 -8 -7 -19 -15 -26 -8 -7 -21 -24 -28 -39
-21 -41 -41 -74 -54 -88 -25 -28 -54 -83 -48 -93 3 -5 2 -10 -3 -10 -13 0 -96
-138 -111 -183 -7 -20 -16 -37 -20 -37 -4 0 -21 -26 -37 -57 -25 -51 -43 -81
-92 -158 -6 -11 -22 -39 -34 -62 -12 -24 -25 -43 -30 -43 -4 0 -20 -26 -36
-58 -15 -32 -38 -69 -50 -82 -12 -13 -22 -31 -22 -41 0 -9 -7 -22 -15 -29 -9
-7 -13 -15 -10 -18 4 -5 -31 -70 -44 -82 -4 -3 -21 -26 -39 -53 l-33 -47 48 0
c44 0 50 3 68 32 11 18 20 37 20 42 0 29 66 -6 103 -56 10 -14 28 -18 80 -18
l66 0 -71 72 c-92 94 -98 107 -76 152 9 20 21 36 27 36 6 0 30 -20 53 -45 24
-24 49 -48 57 -52 8 -4 32 -24 53 -43 141 -128 129 -120 183 -120 27 0 50 4
50 10 0 11 -154 162 -191 187 -13 10 -30 26 -38 36 -8 11 -23 27 -34 36 -11 9
-33 30 -49 46 -32 33 -31 58 3 106 10 15 19 32 19 38 0 6 5 11 10 11 6 0 10 5
10 11 0 6 13 29 29 52 40 58 161 285 161 301 0 4 38 65 84 135 47 71 95 147
108 169 13 21 36 59 52 83 16 24 42 65 59 92 18 27 38 47 48 47 19 0 124 -76
183 -131 19 -19 48 -45 64 -59 16 -14 53 -48 83 -75 30 -28 77 -69 104 -90 80
-63 248 -206 270 -229 11 -12 58 -56 105 -96 47 -41 128 -113 180 -161 77 -69
136 -117 179 -146 2 -1 -5 -22 -16 -45 -11 -24 -26 -61 -33 -82 -7 -22 -26
-63 -43 -90 -30 -52 -43 -81 -57 -128 -8 -28 -8 -28 35 -28 35 0 43 3 39 15
-4 8 1 17 10 21 9 3 16 12 16 20 0 8 5 14 10 14 6 0 10 5 10 11 0 6 9 22 20
36 11 14 20 34 20 43 0 10 7 20 15 24 8 3 15 12 15 20 0 21 32 86 42 86 18 0
68 -45 68 -61 0 -9 -9 -28 -20 -42 -11 -14 -20 -30 -20 -35 0 -15 -50 -121
-61 -127 -22 -14 -5 -25 39 -25 45 0 48 2 75 45 15 25 27 50 27 54 0 5 7 11
15 15 8 3 20 17 25 32 8 19 14 23 23 16 44 -35 187 -139 205 -149 12 -7 50
-13 84 -13 l63 0 -33 30 c-18 16 -57 44 -85 62 -29 18 -56 38 -62 44 -5 6 -28
22 -50 35 -22 13 -57 43 -79 66 -22 24 -46 43 -53 43 -7 0 -28 15 -46 33 -17
18 -59 54 -92 80 -33 26 -80 67 -105 90 -25 23 -65 58 -89 77 -24 19 -54 44
-66 55 -11 11 -38 31 -58 45 -20 14 -37 28 -37 32 0 9 -32 40 -116 113 -38 33
-87 76 -109 97 -76 69 -110 98 -118 98 -4 0 -24 15 -45 34 -20 19 -64 57 -97
86 -33 29 -80 71 -105 94 -25 22 -66 57 -90 76 -24 19 -66 57 -93 83 -47 46
-48 49 -32 67 16 18 19 18 48 4 16 -9 53 -39 82 -67 28 -29 77 -74 107 -102
30 -27 96 -87 145 -132 50 -46 103 -93 119 -105 16 -13 31 -26 32 -30 2 -5 9
-8 15 -8 7 0 23 -12 36 -26 14 -14 45 -42 70 -62 25 -20 53 -45 62 -54 9 -10
19 -18 23 -18 3 0 32 -25 64 -55 31 -30 73 -69 93 -87 20 -18 83 -77 141 -130
57 -53 117 -107 133 -120 16 -12 40 -33 54 -47 36 -33 280 -216 424 -317 l120
-84 76 0 c76 1 76 1 46 17 -25 14 -72 49 -158 119 -9 8 -20 14 -23 14 -3 0
-36 20 -73 45 -37 25 -70 45 -74 45 -3 0 -21 16 -40 35 -19 19 -38 35 -42 35
-9 0 -88 70 -93 82 -2 4 5 8 16 8 14 0 26 15 43 53 12 28 22 56 21 60 -1 4 5
10 13 13 8 4 15 14 15 23 0 15 39 94 118 241 77 143 112 216 112 233 0 10 7
20 16 24 19 7 194 -25 209 -38 5 -5 20 -9 33 -9 13 0 32 -5 42 -10 25 -13 174
-30 400 -45 164 -10 291 -34 339 -62 50 -29 199 -138 222 -162 8 -9 51 -50 95
-91 43 -41 86 -85 94 -97 8 -12 42 -54 75 -95 33 -40 69 -86 79 -103 11 -16
29 -40 40 -52 31 -31 52 -60 94 -130 20 -34 52 -83 69 -108 31 -43 35 -45 82
-45 l50 0 -31 50 c-17 28 -35 50 -39 50 -4 0 -27 35 -50 77 -23 43 -48 82 -56
86 -7 4 -13 14 -13 22 0 7 -4 15 -8 17 -4 2 -23 26 -42 53 -19 28 -45 63 -57
78 -36 45 -31 50 51 42 45 -4 89 -2 115 5 41 11 42 12 39 48 -2 24 -8 36 -16
34 -8 -1 -26 8 -42 20 -16 13 -47 34 -70 48 -60 36 -210 226 -210 266 0 7 56
-24 72 -39 25 -25 142 -97 158 -97 9 0 21 -5 27 -11 14 -14 105 -46 153 -54
19 -3 49 -2 65 3 35 10 34 5 34 197 0 214 1 230 19 189 4 -10 19 -37 32 -59
l25 -40 3 872 c2 856 2 873 -18 893 -27 27 -200 140 -215 140 -7 0 -18 7 -25
15 -7 8 -21 15 -30 15 -10 0 -20 4 -22 8 -1 5 -32 24 -68 43 -36 18 -71 39
-78 46 -7 7 -19 13 -26 13 -8 0 -19 7 -26 15 -7 8 -30 20 -51 27 -81 24 -31
43 93 35 121 -8 220 -23 335 -51 56 -15 109 -26 118 -26 13 0 15 21 15 145 0
142 0 145 -24 160 -33 22 -194 77 -286 100 -41 9 -91 26 -111 36 -32 17 -180
39 -259 39 -14 0 -78 3 -144 6 -135 7 -235 -8 -399 -58 -53 -16 -103 -28 -111
-25 -8 3 -12 20 -11 44 1 46 -13 89 -41 126 -25 31 -102 67 -144 67 -31 0 -41
19 -30 55 9 29 -4 277 -16 297 -2 4 -9 40 -14 80 -11 82 -12 87 -28 143 -6 22
-13 54 -16 70 -2 17 -5 30 -6 30 -2 0 -8 26 -16 70 -4 22 -15 52 -25 67 -11
14 -19 32 -19 40 0 23 -46 113 -84 162 -20 26 -36 52 -36 57 0 12 -49 89 -72
112 -10 10 -18 24 -18 31 0 7 -11 23 -25 36 l-25 24 23 25 c13 14 29 39 37 55
8 15 32 45 53 66 27 27 40 50 43 77 7 50 25 125 34 138 4 6 13 39 19 75 7 36
16 85 21 110 17 88 22 147 26 294 2 82 5 151 8 153 2 3 0 18 -5 35 -5 18 -5
36 0 42 5 6 7 22 4 36 -2 14 -10 66 -18 115 -18 111 -30 174 -55 290 -25 119
-31 155 -24 155 11 0 101 -101 115 -128 7 -15 24 -42 37 -60 13 -18 25 -39 26
-45 5 -21 48 -132 66 -167 4 -9 11 -30 14 -47 4 -17 14 -37 22 -44 31 -25 46
-72 60 -177 2 -20 8 -50 13 -67 4 -16 7 -88 6 -160 0 -71 1 -134 4 -140 3 -5
6 -16 6 -24 0 -24 24 -24 29 1 10 52 25 255 21 287 -7 49 -17 149 -19 201 -2
25 -8 65 -15 90 -23 84 -53 185 -67 223 -8 20 -13 41 -12 45 1 4 -4 21 -11 37
-8 17 -18 41 -23 55 -6 14 -14 33 -19 42 -5 10 -9 26 -9 37 0 10 -7 24 -15 31
-8 7 -15 22 -15 33 0 24 -51 109 -94 154 -16 18 -31 40 -32 48 -2 15 -27 51
-81 114 -18 21 -33 45 -33 53 0 7 -13 29 -30 48 -42 50 -37 57 14 16 23 -20
47 -36 51 -36 29 0 187 -160 272 -275 33 -44 100 -134 149 -200 49 -66 91
-124 93 -130 2 -5 21 -33 43 -62 22 -29 46 -71 52 -95 16 -51 27 -56 58 -25
12 13 35 31 51 40 15 10 27 25 27 35 0 10 6 26 13 36 11 15 17 16 40 5 21 -9
30 -9 41 0 24 20 49 5 76 -44 13 -24 27 -40 31 -34 7 12 29 -20 77 -111 34
-65 60 -102 47 -68 -8 19 75 104 129 133 29 16 32 22 34 68 1 28 6 55 12 61 6
6 29 5 63 -4 30 -7 61 -10 68 -7 8 3 -2 6 -21 7 -33 1 -33 2 -11 11 23 9 23
12 16 72 -4 34 -9 82 -10 107 -2 25 -9 58 -15 75 -10 26 -9 32 9 46 21 17 108
16 143 -2 9 -5 26 -9 38 -9 l21 0 -23 42 c-25 45 -104 130 -181 192 -59 48
-149 155 -141 167 6 10 -80 99 -95 99 -12 0 -91 78 -91 90 0 13 7 13 38 -4 15
-8 48 -20 75 -27 26 -8 47 -17 47 -21 0 -4 8 -8 18 -8 9 0 67 -25 127 -56 61
-31 122 -58 137 -60 14 -2 30 -4 35 -6 12 -3 53 12 53 20 0 11 -228 124 -340
170 -186 76 -215 86 -252 88 -21 1 -44 7 -52 13 -7 6 -26 13 -42 16 -16 2 -51
9 -79 15 -27 6 -63 13 -80 16 -16 3 -70 12 -118 20 -53 9 -119 13 -164 10 -65
-4 -79 -8 -99 -30 -13 -14 -20 -27 -15 -30 5 -3 51 -6 102 -6 52 0 110 -2 129
-5 124 -20 161 -28 166 -36 3 -5 13 -9 22 -9 10 0 37 -11 62 -24 25 -13 56
-27 70 -31 31 -10 140 -84 140 -96 0 -5 9 -9 20 -9 11 0 20 -4 20 -9 0 -5 10
-13 22 -17 28 -9 360 -344 355 -358 -2 -6 -17 -12 -34 -13 -58 -5 -81 -20 -92
-60 -15 -52 -15 -48 24 -146 42 -104 45 -131 13 -121 -13 3 -36 13 -52 22 -29
14 -31 13 -53 -12 -14 -17 -23 -40 -23 -60 0 -58 -12 -95 -31 -101 -10 -4 -29
-28 -41 -56 -13 -27 -29 -49 -36 -49 -30 0 -74 64 -126 182 -9 21 -40 61 -68
90 -44 46 -98 130 -98 154 0 4 -17 33 -37 63 -20 31 -48 73 -61 93 -19 30 -72
92 -119 141 -16 15 -59 50 -83 66 -31 20 -57 40 -82 64 -10 9 -22 17 -28 17
-5 0 -13 6 -17 13 -4 8 -24 22 -43 33 -19 10 -42 24 -51 31 -10 8 -28 11 -47
7 -38 -8 -41 -20 -7 -28 14 -4 25 -10 25 -15 0 -5 21 -22 48 -37 26 -15 49
-30 52 -34 3 -4 34 -31 70 -60 36 -30 73 -61 82 -71 10 -10 23 -21 30 -26 40
-25 186 -217 193 -252 2 -11 10 -30 19 -43 8 -13 18 -45 21 -71 7 -46 7 -48
-16 -46 -56 5 -58 3 -61 -63 -2 -49 -7 -63 -20 -66 -10 -2 -19 6 -24 20 -9 29
-107 181 -151 232 -18 22 -33 43 -33 48 0 5 -10 19 -21 31 -12 12 -53 64 -91
115 -39 50 -74 92 -79 92 -5 0 -9 6 -9 13 0 19 -147 165 -221 219 -35 26 -76
58 -92 72 -15 13 -43 34 -62 47 -29 20 -35 30 -35 62 0 35 2 37 33 37 39 0
150 -17 197 -29 19 -6 67 -18 105 -27 39 -10 94 -28 124 -41 29 -13 59 -23 66
-23 11 0 63 -21 190 -76 17 -7 53 -22 80 -34 60 -26 178 -83 185 -90 7 -8 74
-30 90 -30 7 0 18 -7 24 -15 6 -9 35 -26 64 -40 40 -19 52 -21 52 -10 0 16
-93 88 -128 99 -12 4 -22 12 -22 17 0 5 -7 9 -15 9 -9 0 -18 7 -21 15 -4 8
-11 15 -16 15 -10 0 -95 39 -253 116 -50 24 -97 44 -105 44 -8 0 -35 12 -59
25 -24 14 -49 25 -55 24 -11 -2 -54 13 -91 32 -24 12 -95 32 -230 65 -55 14
-120 31 -145 39 -25 9 -53 15 -62 15 -11 0 -18 8 -18 18 0 10 -3 22 -7 25 -6
6 -13 47 -17 91 -1 15 10 23 49 34 28 7 68 19 89 25 46 13 575 17 619 4 22 -6
28 -5 25 5 -3 9 -21 12 -51 11 -34 -1 -47 2 -47 12 0 16 -72 25 -255 30 -71 2
-134 5 -140 5 -5 1 -55 2 -110 1 -97 -1 -197 -21 -210 -41 -11 -17 -22 -11
-34 18 -16 38 -4 64 44 102 39 31 208 117 289 146 91 33 249 84 262 84 8 0 22
8 32 18 18 18 17 18 -17 20 -20 1 -56 -3 -81 -8 -25 -5 -74 -14 -110 -20 -88
-15 -197 -53 -305 -105 -110 -54 -161 -95 -170 -136 -5 -21 -10 -28 -17 -21
-6 6 -7 16 -3 23 5 7 9 25 10 41 2 16 12 39 24 52 12 12 21 26 22 32 0 5 39
36 86 69 47 33 99 71 117 85 17 14 42 31 56 38 14 6 54 30 90 53 36 23 99 59
140 82 41 22 80 43 85 48 23 17 175 61 240 69 123 16 199 28 247 39 65 15 178
23 334 25 118 1 135 -1 182 -23 46 -22 66 -40 45 -41 -5 -1 -24 -14 -43 -30
-32 -28 -35 -36 -46 -123 l-12 -92 27 -28 c14 -16 35 -33 46 -39 18 -10 18 -8
-2 14 -29 31 -39 102 -23 167 14 59 28 68 22 14 -3 -21 -2 -36 1 -33 4 3 7 24
8 45 2 23 13 53 26 71 43 58 37 65 -95 105 -51 16 -79 30 -89 46 l-16 24 -161
-5 c-88 -3 -181 -10 -206 -15 -25 -6 -108 -17 -185 -26 -85 -9 -168 -24 -211
-39 -93 -31 -254 -105 -280 -128 -11 -10 -24 -18 -28 -18 -10 0 -187 -120
-208 -141 -10 -10 -26 -20 -38 -24 -11 -3 -20 -10 -20 -14 0 -4 -21 -23 -47
-41 -74 -52 -122 -100 -159 -157 l-34 -52 -60 22 c-71 26 -76 43 -30 110 17
25 30 54 30 65 0 11 5 22 12 24 7 3 9 14 4 31 -5 20 -15 29 -45 37 -48 13 -57
23 -65 82 -8 51 -24 74 -74 101 -47 27 -160 57 -210 57 -42 0 -44 1 -66 50
-31 66 -89 130 -120 130 -16 0 -33 13 -52 38 -56 73 -208 212 -233 212 -6 0
-11 6 -11 13 0 8 -48 37 -107 66 -60 29 -130 65 -158 81 -112 66 -265 111
-425 125 -36 3 -96 10 -133 16 -38 5 -103 12 -145 15 -43 2 -104 9 -137 14
-65 11 -198 13 -207 4z m296 -316 c8 -18 19 -45 25 -60 11 -30 76 -68 114 -68
14 0 55 11 91 25 37 14 69 25 71 25 10 0 5 -59 -5 -65 -5 -3 -10 -17 -10 -31
0 -14 -5 -34 -10 -45 -9 -16 -7 -19 9 -19 36 0 51 12 51 40 0 16 5 32 10 35 6
3 10 17 10 30 0 15 11 33 30 47 17 12 30 27 30 32 0 17 67 58 87 54 10 -2 25
-23 36 -53 16 -43 18 -62 10 -133 -5 -45 -5 -89 0 -97 4 -8 21 -15 36 -15 24
0 28 4 29 31 0 17 4 44 7 60 6 25 10 29 28 22 12 -4 46 -8 74 -8 49 1 52 -1
47 -20 -14 -44 -23 -63 -33 -70 -6 -3 -11 -15 -11 -26 0 -31 36 -23 57 14 11
17 44 58 73 90 48 53 57 58 84 53 46 -10 61 -28 45 -57 -26 -51 -29 -60 -29
-98 0 -50 -8 -71 -25 -65 -15 6 -56 -12 -53 -24 0 -4 -5 -22 -12 -39 -14 -37
-18 -38 -125 -19 l-69 12 -2 40 c-1 21 -3 51 -3 67 -2 48 -33 28 -80 -51 -27
-45 -61 -58 -101 -37 -14 7 -33 16 -42 19 -11 3 -19 16 -20 33 -2 46 0 96 5
126 5 24 2 27 -23 27 -28 0 -29 -2 -36 -67 -13 -123 0 -113 -149 -118 -72 -2
-139 -5 -150 -7 -17 -2 -20 2 -18 27 2 17 4 69 7 117 2 47 6 91 10 96 3 5 -1
15 -8 21 -11 10 -18 7 -30 -11 -9 -12 -16 -30 -16 -38 0 -9 -4 -20 -8 -25 -5
-6 -19 -48 -32 -95 -12 -47 -27 -89 -31 -94 -5 -5 -40 -11 -78 -12 -38 -2 -79
-8 -91 -14 -27 -14 -46 7 -56 60 -10 57 -14 67 -39 94 l-24 26 43 12 c34 9 50
21 77 60 19 27 40 55 46 62 7 8 18 36 24 63 7 26 13 54 15 61 2 6 14 12 28 12
14 0 28 5 31 10 3 6 19 10 36 10 24 0 32 -6 43 -32z m-534 -148 c5 0 18 -16
30 -35 15 -24 34 -38 61 -46 21 -7 39 -13 39 -14 0 -2 -11 -46 -25 -99 -14
-53 -25 -99 -25 -103 0 -3 -9 2 -21 13 -21 19 -21 19 -19 -16 3 -55 3 -56 -51
-68 -67 -16 -69 -16 -69 11 0 13 -3 27 -7 31 -4 3 -8 39 -10 79 -2 39 -8 88
-15 107 -17 52 -11 101 15 119 27 20 58 30 75 25 8 -2 17 -4 22 -4z m-500
-130 c10 -5 29 -29 44 -54 30 -51 60 -63 110 -42 19 8 44 12 55 9 12 -3 39 2
61 11 22 9 44 16 49 16 4 0 11 -28 14 -62 4 -35 9 -81 13 -103 5 -37 4 -42
-19 -52 -14 -7 -41 -15 -60 -18 -34 -7 -34 -6 -42 37 -10 55 -8 46 -29 95 -34
74 -89 61 -62 -15 8 -23 16 -67 18 -99 3 -57 3 -58 -32 -74 -71 -33 -80 -33
-80 -2 0 16 -9 60 -19 98 -11 38 -17 73 -15 77 3 4 -13 8 -36 8 -23 0 -39 -4
-36 -8 3 -5 8 -63 11 -129 l6 -120 -48 -13 c-26 -7 -65 -21 -85 -31 -38 -17
-38 -17 -57 7 -10 13 -23 24 -29 24 -6 0 -20 15 -31 33 -32 49 -78 90 -95 84
-23 -9 -30 -55 -18 -116 18 -85 2 -133 -57 -171 -26 -16 -52 -30 -56 -30 -5 0
-19 -9 -31 -21 l-22 -21 -16 31 c-9 17 -20 31 -25 31 -5 0 -12 12 -16 27 -9
39 -77 85 -96 66 -14 -14 36 -105 87 -159 l22 -23 -73 -55 c-40 -31 -75 -56
-78 -56 -3 0 -15 21 -28 46 -12 26 -35 62 -51 80 -22 24 -27 39 -23 57 4 14 1
36 -6 49 -7 12 -12 33 -10 45 1 13 -5 32 -13 45 -14 20 -13 23 10 45 37 34
127 33 174 -2 24 -18 47 -25 77 -25 40 0 44 -3 65 -42 12 -24 21 -46 20 -49 0
-4 9 -16 22 -28 22 -21 25 -21 40 -5 17 17 14 46 -8 74 -28 34 -50 101 -40
118 6 9 19 45 29 80 20 67 33 75 73 46 33 -23 80 -35 142 -35 49 0 58 3 82 30
16 17 28 38 28 47 0 8 11 32 25 52 14 20 25 42 25 48 0 17 49 106 73 132 22
24 39 27 67 12z m2210 -168 c-17 -31 -38 -67 -48 -80 l-18 -23 -46 20 c-25 11
-59 22 -75 24 -60 10 -74 24 -54 56 7 10 13 11 30 2 25 -14 45 -5 37 15 -14
36 3 43 105 43 l99 0 -30 -57z m183 16 c9 -18 13 -36 10 -41 -3 -4 3 -17 14
-29 19 -21 24 -79 10 -130 -7 -25 -9 -26 -37 -16 -23 8 -29 15 -25 29 3 10 7
27 10 38 4 11 -3 27 -18 41 -21 20 -23 30 -19 69 8 75 30 91 55 39z m-1701
-13 c2 -11 -3 -20 -9 -20 -7 0 -13 3 -13 8 0 4 0 17 0 29 0 26 17 13 22 -17z
m743 -56 c55 -6 118 -13 140 -15 22 -1 78 -10 125 -19 47 -9 121 -22 165 -30
86 -14 344 -98 412 -133 23 -12 47 -22 54 -22 6 0 54 -26 107 -57 54 -32 117
-68 141 -80 55 -27 107 -86 119 -135 10 -37 9 -37 -11 -23 -12 8 -32 15 -44
15 -13 0 -23 4 -23 9 0 15 -250 151 -277 151 -5 0 -24 8 -43 18 -39 20 -113
42 -235 68 -44 9 -100 22 -125 30 -49 14 -121 28 -131 26 -4 -1 -22 3 -40 9
-19 5 -65 12 -103 15 -38 2 -75 9 -82 15 -17 14 -282 29 -312 18 -14 -6 -31
-5 -42 1 -18 9 -105 7 -220 -6 -30 -3 -92 -7 -136 -9 -45 -1 -104 -8 -130 -14
-180 -41 -270 -64 -280 -72 -6 -5 -14 -6 -17 -2 -4 3 -15 -1 -25 -11 -11 -9
-26 -14 -34 -11 -9 4 -32 -3 -52 -14 -20 -12 -48 -21 -61 -21 -13 0 -59 -15
-102 -34 -43 -18 -127 -52 -188 -76 -60 -24 -132 -57 -160 -75 -27 -17 -84
-50 -127 -73 -42 -22 -96 -53 -120 -68 -23 -16 -59 -37 -78 -47 -19 -11 -46
-29 -60 -42 -14 -12 -46 -34 -71 -49 -26 -14 -61 -40 -79 -57 -17 -17 -48 -42
-68 -55 -20 -14 -65 -50 -100 -81 -34 -31 -74 -64 -87 -75 -14 -11 -51 -47
-82 -81 -32 -33 -77 -81 -100 -105 -24 -24 -43 -46 -43 -48 0 -1 -15 -18 -32
-37 l-33 -35 -41 22 -41 23 18 36 c11 20 28 42 39 50 11 7 18 16 15 19 -3 3
10 20 30 39 19 19 35 40 35 47 0 6 6 12 13 12 6 0 23 17 37 37 45 66 193 200
226 206 28 4 46 17 41 30 -4 13 23 47 38 47 6 0 20 8 31 18 29 25 113 82 123
82 4 0 18 12 32 26 24 25 113 89 212 151 86 54 335 173 477 228 25 9 52 21 61
25 9 5 35 14 58 20 22 6 41 15 41 20 0 6 9 10 20 10 19 0 88 23 120 40 9 4 36
11 60 15 25 4 50 11 55 14 12 9 116 36 200 52 33 6 74 17 90 24 17 7 61 16
100 19 38 4 72 12 76 18 4 6 11 8 15 6 5 -3 32 -2 59 1 91 12 348 12 450 0z
m1206 -38 c23 -12 49 -21 56 -21 24 0 46 -48 41 -88 -3 -21 -1 -45 6 -53 15
-19 70 -49 90 -49 20 0 20 -5 -1 -57 -19 -44 -30 -53 -39 -30 -4 10 -19 13
-54 9 -42 -4 -54 -1 -79 21 -17 14 -36 27 -43 30 -9 3 0 17 25 39 20 19 37 40
37 46 0 7 8 17 19 23 20 13 17 49 -4 49 -8 0 -30 -16 -51 -35 -20 -20 -49 -38
-63 -41 -14 -3 -34 -10 -44 -15 -32 -18 -50 8 -43 61 3 25 8 63 11 84 2 22 10
43 17 48 18 12 68 3 119 -21z m-387 -23 c-8 -29 -10 -31 -23 -23 -8 4 -8 12
-1 26 15 27 33 24 24 -3z m-1211 -165 c-7 -2 -21 -2 -30 0 -10 3 -4 5 12 5 17
0 24 -2 18 -5z m-1347 -68 c-9 -24 -36 -18 -36 8 0 13 3 26 6 30 11 10 36 -22
30 -38z m2379 -53 c-3 -3 -11 0 -18 7 -9 10 -8 11 6 5 10 -3 15 -9 12 -12z
m702 -58 c-3 -3 -12 -4 -19 -1 -8 3 -5 6 6 6 11 1 17 -2 13 -5z m-3679 -128
c16 -24 35 -60 42 -81 11 -34 10 -38 -11 -53 -13 -9 -39 -31 -58 -49 l-33 -32
-29 21 c-16 12 -29 30 -29 40 0 10 -11 23 -24 28 -41 15 -42 32 -5 59 19 14
52 45 73 68 22 24 41 43 42 43 1 0 16 -20 32 -44z m3797 -10 c96 -44 225 -207
225 -284 0 -14 5 -42 12 -64 20 -67 -2 -66 -69 4 -33 35 -91 92 -129 127 -39
37 -64 66 -56 69 22 7 13 48 -18 75 -16 15 -30 36 -30 46 0 11 -4 23 -10 26
-16 10 -12 25 8 25 9 0 40 -11 67 -24z m-4087 -55 c6 -16 19 -32 29 -35 10 -3
29 -20 43 -37 14 -17 37 -44 52 -60 48 -51 51 -63 17 -83 -28 -16 -32 -17 -48
-2 -23 21 -44 20 -72 -3 l-24 -19 29 -31 c25 -26 27 -31 13 -37 -14 -5 -107
32 -107 43 0 2 6 14 14 26 8 12 20 45 27 74 14 60 6 77 -48 100 -18 7 -33 20
-33 27 0 18 59 66 82 66 9 0 20 -13 26 -29z m-234 -278 c24 -22 32 -24 47 -15
39 25 89 11 89 -24 0 -18 10 -31 35 -46 40 -23 42 -19 -33 -99 l-33 -36 -67
67 c-75 74 -112 119 -112 138 0 6 -4 12 -10 12 -5 0 -10 7 -10 15 0 26 61 19
94 -12z m1912 -438 c28 -166 86 -403 105 -430 3 -5 10 -28 14 -50 4 -22 15
-58 25 -80 10 -23 22 -54 26 -70 4 -17 10 -34 15 -40 4 -5 8 -13 8 -18 3 -34
106 -244 135 -275 18 -19 26 -35 20 -40 -5 -4 -40 -16 -79 -26 -66 -16 -181
-57 -215 -75 -9 -5 -54 -20 -100 -34 -47 -15 -112 -42 -144 -62 -101 -61 -123
-56 -131 30 -3 25 -9 54 -14 63 -5 10 -12 44 -15 77 -4 33 -9 71 -11 85 -3 14
-1 66 5 115 5 50 12 119 15 155 3 36 7 83 9 106 2 23 8 50 14 60 5 10 13 48
16 84 4 35 10 69 14 75 4 5 8 21 10 35 2 14 7 27 13 28 5 2 9 13 9 25 0 22 44
167 61 199 5 10 9 25 9 33 0 8 4 23 9 33 14 27 38 84 46 112 4 14 11 30 15 35
4 6 10 22 14 37 3 15 14 34 23 43 16 16 18 12 40 -61 13 -43 30 -119 39 -169z
m-1889 108 c-9 -9 -20 -13 -24 -9 -4 4 1 14 11 22 25 18 35 8 13 -13z m31
-156 c27 -4 104 -76 138 -129 29 -46 29 -59 4 -183 -29 -139 -97 -234 -200
-275 -42 -17 -127 -17 -161 0 -24 13 -128 106 -129 115 0 3 -7 16 -16 30 -9
14 -13 33 -9 44 3 12 -1 31 -11 46 -21 32 -13 102 16 150 11 18 20 39 20 47 0
19 60 81 110 115 77 50 119 57 238 40z m224 -29 c-7 -7 -12 -8 -12 -2 0 14 12
26 19 19 2 -3 -1 -11 -7 -17z m-8 -43 c3 -8 1 -15 -3 -15 -5 0 -11 7 -15 15
-3 8 -1 15 3 15 5 0 11 -7 15 -15z m3759 -235 c3 -14 10 -37 16 -53 12 -31 15
-44 37 -177 9 -52 19 -102 22 -110 3 -8 6 -19 7 -25 0 -5 4 -16 8 -22 5 -7 6
-17 2 -22 -3 -5 -1 -12 5 -16 6 -4 8 -9 6 -13 -2 -4 4 -49 14 -100 14 -75 15
-102 6 -143 -7 -31 -15 -46 -21 -41 -6 5 -48 24 -95 43 -108 42 -200 96 -200
118 0 23 44 157 57 173 6 7 14 29 18 48 6 35 40 152 52 180 9 21 8 18 17 84 4
33 15 70 23 83 18 27 20 27 26 -7z m-2823 -532 c19 -34 66 -93 103 -131 56
-56 157 -187 157 -202 0 -2 14 -19 30 -37 17 -18 30 -35 30 -39 0 -6 -103 -59
-116 -59 -13 0 -223 -122 -235 -137 -9 -10 -9 -17 -1 -25 9 -9 40 1 124 39 62
29 140 61 173 73 33 12 65 26 72 32 7 6 27 8 45 5 18 -3 42 -7 53 -9 15 -2 21
3 23 25 2 19 9 27 22 27 11 0 29 4 42 9 34 13 95 29 160 41 32 6 64 17 70 24
7 7 69 22 138 34 69 12 145 26 170 32 57 12 117 13 122 1 4 -11 58 -79 83
-106 11 -12 27 -34 35 -49 8 -15 31 -36 50 -46 43 -22 78 -66 110 -135 113
-248 150 -305 297 -453 109 -109 125 -122 143 -112 18 9 20 21 20 95 0 83 18
132 22 58 1 -21 3 -47 4 -58 1 -11 2 -33 3 -48 1 -23 5 -28 24 -25 16 2 23 11
25 31 2 16 9 27 18 27 8 0 27 12 41 28 38 40 127 162 148 202 20 38 72 120
104 161 11 14 32 51 46 82 15 31 31 57 35 57 10 0 120 216 120 235 0 7 9 33
20 58 20 44 22 46 68 49 81 5 197 -9 263 -32 35 -12 68 -26 72 -30 20 -18 -60
-336 -89 -353 -20 -11 -5 -37 22 -37 13 0 28 9 34 20 6 12 22 25 35 30 24 9
75 94 75 124 0 19 31 30 42 14 4 -7 8 -24 9 -38 2 -40 -2 -213 -6 -240 -2 -14
-4 -28 -4 -33 -1 -4 -79 -8 -173 -8 -231 -2 -261 -3 -273 -10 -5 -4 -26 -10
-45 -14 -19 -4 -40 -11 -46 -16 -6 -5 -64 -19 -130 -32 -103 -20 -119 -26
-122 -43 -5 -35 23 -49 71 -37 23 7 43 10 45 9 1 -2 -31 -38 -73 -80 -75 -77
-90 -108 -59 -120 18 -7 34 3 73 43 l25 24 21 -64 c31 -90 49 -123 79 -138 21
-11 28 -12 41 -1 23 19 18 36 -15 60 -18 13 -33 35 -39 58 -21 83 -3 93 48 27
20 -25 45 -45 60 -48 29 -6 65 9 56 23 -3 6 2 19 12 30 11 10 18 32 17 47 -4
68 -2 65 -33 58 -28 -6 -29 -5 -36 42 -9 68 -9 67 30 74 58 10 68 -15 62 -149
-4 -91 -8 -115 -28 -150 -18 -31 -21 -44 -12 -53 25 -25 63 12 88 86 4 11 6
61 5 110 -3 138 -3 166 2 171 12 11 185 15 212 5 24 -10 27 -15 22 -39 -4 -15
-16 -38 -27 -52 -10 -14 -25 -36 -32 -50 -14 -30 -17 -34 -57 -81 -55 -66 -28
-111 30 -49 15 17 33 30 39 30 6 0 11 5 11 10 0 6 20 35 45 65 24 30 49 73 55
95 7 24 17 40 26 40 11 0 13 -6 8 -22 -4 -13 -8 -34 -9 -48 -5 -49 -15 -136
-25 -200 -5 -36 -12 -96 -15 -135 -3 -38 -11 -112 -19 -163 -8 -51 -12 -105
-10 -120 8 -56 3 -354 -6 -429 -17 -126 -63 -287 -100 -343 -57 -87 -93 -136
-164 -225 -96 -117 -217 -252 -283 -315 -27 -25 -62 -61 -80 -80 -18 -19 -64
-70 -103 -112 -38 -42 -70 -84 -70 -92 0 -8 -6 -19 -13 -23 -17 -10 -140 -169
-161 -208 -8 -16 -35 -54 -58 -84 -47 -58 -80 -74 -176 -85 -84 -8 -360 30
-472 65 -143 46 -165 56 -222 95 -28 20 -80 50 -114 66 -34 16 -68 35 -74 43
-6 8 -24 16 -39 20 -16 3 -37 14 -47 23 -11 9 -48 40 -84 69 -36 29 -74 60
-85 70 -25 23 -63 43 -81 43 -8 0 -14 6 -14 13 0 6 -30 35 -66 62 -36 28 -85
66 -109 85 -84 68 -134 105 -189 139 -31 19 -56 41 -56 48 0 7 -7 13 -15 13
-9 0 -19 10 -24 23 -5 12 -29 41 -53 63 -25 23 -55 57 -68 75 -13 19 -31 42
-39 51 -36 38 -45 53 -48 70 -4 24 -33 68 -44 68 -5 0 -9 6 -9 13 0 7 -13 33
-28 58 -15 24 -35 63 -44 86 l-16 41 50 -29 c27 -16 51 -29 55 -29 3 0 22 -13
42 -28 81 -64 251 -138 376 -166 39 -8 88 -22 109 -31 29 -12 41 -13 52 -4 16
13 2 49 -19 49 -7 0 -22 10 -34 23 -12 12 -45 46 -73 75 -65 68 -106 132 -86
132 9 0 26 -12 39 -26 42 -45 147 -44 147 2 0 8 -18 15 -45 20 -39 5 -51 13
-86 58 -38 46 -159 282 -159 309 0 6 -8 29 -19 51 -10 23 -24 68 -31 101 -7
33 -18 69 -23 79 -5 11 -15 47 -22 80 -7 34 -19 75 -26 91 -7 17 -14 37 -15
45 -5 27 -25 164 -29 205 -3 22 -7 54 -10 72 -7 42 7 49 118 57 l87 6 28 -40
c83 -123 214 -234 287 -242 25 -2 31 1 33 19 3 17 -5 27 -31 40 -82 43 -144
94 -173 145 -30 51 -45 91 -37 99 4 4 37 13 73 20 36 8 67 17 70 20 3 4 18 11
33 14 l27 7 1 -63 c0 -35 2 -75 5 -89 28 -163 86 -251 151 -226 15 6 13 11
-15 37 -54 51 -80 106 -87 190 -4 42 -3 79 1 81 5 3 28 1 52 -4 l43 -9 -6 -53
c-5 -41 -3 -55 9 -65 9 -8 16 -19 16 -25 0 -18 54 -46 88 -46 54 0 77 15 97
64 12 29 25 46 36 46 25 0 38 22 28 48 -6 16 -16 22 -37 22 -42 0 -66 31 -58
74 8 41 20 51 68 59 44 7 47 1 48 -93 2 -118 -23 -223 -64 -270 -33 -38 -60
-95 -53 -114 10 -24 32 -19 46 10 6 14 25 42 42 62 17 21 37 53 44 72 7 19 21
55 30 80 13 35 16 66 12 137 -5 107 2 119 60 108 30 -5 61 -31 168 -138 163
-165 161 -163 180 -147 17 14 11 26 -50 108 -52 70 -75 105 -75 114 0 4 13 5
28 2 31 -6 63 19 46 36 -20 20 -174 68 -249 78 -205 28 -297 31 -680 23 -93
-1 -196 0 -227 4 -55 7 -58 7 -58 -13 0 -23 27 -41 75 -52 26 -6 28 -8 10 -15
-11 -4 -29 -11 -40 -15 -84 -36 -125 -50 -159 -52 -38 -3 -40 -1 -48 32 -20
77 -25 257 -11 390 3 30 5 64 4 75 0 11 7 92 16 180 9 88 17 180 18 205 1 25
5 52 8 60 3 8 10 48 17 88 6 39 15 72 18 72 4 0 23 -28 42 -62z m3525 -491 c1
-7 5 -43 10 -82 8 -66 10 -102 5 -107 -1 -2 -3 -17 -4 -35 -1 -18 -5 -35 -8
-38 -4 -4 -3 -18 2 -31 9 -23 -8 -91 -29 -118 -4 -6 -11 -25 -14 -43 -4 -18
-25 -62 -48 -98 l-42 -65 -26 22 c-14 13 -27 26 -29 31 -2 4 -10 7 -17 7 -28
0 -21 46 11 75 11 9 81 177 77 182 -1 1 10 31 23 65 35 87 54 161 54 212 0 23
3 46 7 49 8 9 28 -9 28 -26z m-4515 -428 c6 -11 11 -30 10 -42 -1 -12 -1 -24
0 -27 1 -3 4 -18 5 -35 3 -34 7 -56 30 -163 21 -96 41 -165 66 -219 33 -75 57
-128 63 -143 3 -8 18 -33 31 -55 14 -22 34 -56 43 -75 18 -36 42 -76 73 -122
11 -15 19 -32 19 -38 0 -16 -40 -12 -68 8 -15 10 -35 22 -44 25 -9 3 -27 28
-38 56 -12 27 -30 57 -41 67 -10 9 -19 22 -19 27 0 5 -21 51 -46 101 -43 85
-84 138 -115 148 -11 4 -14 44 -12 224 2 298 1 284 18 284 8 0 19 -9 25 -21z
m2927 -59 c-2 -29 -17 -24 -17 6 0 14 4 23 9 19 6 -3 9 -14 8 -25z m-2097
-210 c6 -11 7 -20 2 -20 -6 0 -12 9 -15 20 -3 11 -3 20 -1 20 2 0 8 -9 14 -20z
m4089 -1334 c67 -60 59 -202 -16 -287 -27 -30 -30 -31 -86 -25 -67 7 -88 25
-108 94 -13 45 -7 136 11 156 5 7 7 15 5 18 -3 3 7 8 23 11 16 3 43 20 60 37
25 25 36 29 59 24 15 -4 39 -16 52 -28z m-5679 -190 c38 -25 78 -95 87 -150 5
-30 0 -40 -30 -71 -20 -20 -39 -51 -43 -68 -11 -54 -32 -70 -84 -62 -67 9
-106 31 -131 72 -62 100 -28 226 76 282 51 27 82 27 125 -3z m5328 -137 c37
-23 69 -102 66 -162 -5 -89 -13 -115 -45 -141 -34 -29 -84 -34 -153 -14 -67
19 -94 53 -101 130 -1 10 -8 25 -17 35 -15 17 -15 21 2 59 11 22 38 58 61 79
41 37 43 37 103 33 34 -3 72 -12 84 -19z m-5009 -129 c50 -14 109 -76 125
-131 26 -85 -14 -173 -82 -184 -20 -3 -56 -10 -79 -15 -34 -8 -50 -6 -90 12
-26 12 -51 21 -55 20 -16 -4 -54 94 -53 139 0 56 39 109 80 109 18 0 31 9 43
30 19 33 48 38 111 20z m1374 -57 c4 -27 -2 -52 -18 -88 -13 -27 -27 -62 -30
-77 -7 -27 -6 -28 38 -28 24 0 61 7 80 15 20 8 51 15 68 15 35 0 34 3 9 -103
-9 -35 -9 -52 -1 -60 17 -17 80 -9 108 13 38 30 50 25 58 -22 4 -24 16 -62 26
-86 11 -23 22 -57 25 -75 6 -36 13 -70 44 -200 11 -48 18 -92 15 -97 -3 -5 2
-13 10 -18 12 -6 17 -27 19 -74 3 -61 1 -67 -20 -77 -44 -20 -81 -85 -93 -165
-6 -41 -8 -90 -4 -108 6 -33 51 -83 84 -93 28 -9 28 -68 -1 -153 -31 -89 -76
-155 -179 -261 -71 -72 -75 -75 -80 -51 -8 28 -55 43 -108 35 -39 -7 -138 -94
-147 -130 -4 -16 0 -40 11 -62 12 -27 14 -38 5 -41 -7 -2 -12 -9 -12 -15 0
-12 -40 -39 -90 -63 -14 -6 -36 -23 -49 -38 -14 -14 -32 -26 -41 -26 -9 0 -26
-9 -38 -20 -12 -11 -23 -20 -26 -20 -3 0 -26 -15 -52 -32 -53 -38 -112 -74
-134 -83 -8 -4 -44 -18 -80 -32 -36 -13 -78 -31 -95 -38 -16 -8 -43 -17 -60
-21 -16 -4 -46 -15 -65 -24 -19 -10 -50 -23 -67 -29 -39 -12 -42 -3 -13 44 55
90 138 408 146 560 1 33 6 83 10 110 11 71 12 192 3 315 -4 58 -10 148 -12
200 -4 82 -17 226 -32 366 -5 53 -49 184 -86 259 l-29 59 29 36 c37 47 68 107
76 152 7 36 7 36 78 48 40 6 86 13 103 15 69 7 165 42 283 102 69 35 132 70
141 78 24 22 174 125 181 125 4 0 9 -17 12 -37z m-936 -162 c52 -39 70 -148
32 -206 -10 -16 -23 -40 -29 -52 -5 -13 -16 -23 -24 -23 -7 0 -16 -7 -20 -15
-3 -10 -19 -15 -45 -15 -49 0 -89 17 -96 42 -4 10 -10 18 -15 18 -5 0 -12 23
-16 50 -4 28 -11 50 -16 50 -5 0 -7 23 -4 52 5 49 17 68 43 68 6 0 18 9 25 19
28 40 118 47 165 12z m4247 -2 c15 -12 40 -48 57 -81 24 -48 29 -68 24 -97 -8
-46 -72 -133 -105 -142 -72 -20 -204 -3 -224 30 -10 16 -19 128 -12 154 8 35
89 115 138 137 56 25 89 25 122 -1z m-2920 -18 c3 -4 20 -11 38 -15 28 -5 86
-31 180 -77 10 -5 22 -9 28 -9 6 0 21 -9 32 -20 12 -11 42 -30 67 -43 26 -13
65 -37 89 -54 24 -18 59 -37 78 -43 19 -7 62 -26 97 -45 96 -50 119 -62 162
-82 22 -10 57 -28 77 -41 44 -26 102 -46 173 -61 28 -5 74 -15 104 -21 57 -12
216 -8 306 8 28 5 64 8 80 7 17 -1 38 -3 48 -4 17 -1 18 -9 14 -93 -3 -51 -6
-93 -7 -93 -1 0 -3 -15 -4 -32 -2 -42 -8 -47 -86 -73 -282 -93 -899 -151
-1110 -104 -41 9 -86 18 -100 21 -75 13 -98 25 -105 57 -12 60 -47 261 -50
294 -2 18 -11 45 -21 59 -9 15 -18 52 -20 83 -2 32 -8 69 -14 84 -5 14 -16 55
-25 91 -13 56 -39 143 -60 198 -5 12 -2 17 8 17 9 0 18 -4 21 -9z m4941 -136
l20 -16 -20 10 c-11 5 -29 17 -40 26 l-20 16 20 -10 c11 -5 29 -17 40 -26z
m-2931 -19 c23 -19 58 -41 76 -50 19 -9 42 -20 50 -25 26 -16 104 -49 130 -54
14 -3 61 -12 104 -21 63 -12 82 -13 94 -3 12 9 16 9 19 0 6 -16 55 -17 70 -2
8 8 22 0 52 -30 39 -39 50 -43 111 -45 24 -1 25 -3 25 -76 1 -67 9 -171 20
-240 2 -14 6 -50 10 -80 24 -238 60 -414 103 -512 11 -24 25 -61 33 -83 12
-39 51 -132 70 -167 7 -13 5 -18 -5 -18 -8 0 -18 5 -21 10 -10 16 -56 11 -102
-9 -36 -17 -51 -18 -120 -10 -77 10 -184 42 -213 64 -8 6 -46 21 -85 34 -38
13 -79 27 -90 32 -11 4 -47 16 -80 25 -33 9 -69 21 -80 28 -11 7 -40 18 -65
26 -25 7 -70 26 -100 41 -30 15 -65 30 -78 34 -12 3 -27 15 -32 26 -6 10 -29
28 -50 39 -76 39 -119 155 -79 211 19 27 21 52 15 140 -7 91 -25 143 -66 187
-25 26 -45 39 -55 36 -11 -4 -15 1 -16 17 -5 83 -5 117 2 139 4 14 12 52 19
85 14 73 33 114 75 161 32 36 33 36 63 20 16 -8 46 -18 66 -20 19 -2 40 -7 45
-10 5 -3 16 -3 25 0 13 5 15 19 12 70 -2 35 -1 64 2 64 3 0 24 -15 46 -34z
m-306 -618 c14 -18 26 -77 23 -118 -2 -42 -37 -89 -82 -112 -145 -71 -258
-109 -369 -124 l-48 -6 6 28 c2 16 8 34 13 39 15 19 2 65 -26 92 l-27 28 33 8
c19 4 49 10 67 12 43 7 214 64 227 76 5 5 17 9 26 9 9 0 22 7 29 15 7 8 22 15
35 15 14 0 26 9 33 25 12 27 43 33 60 13z m-1618 -112 c0 -29 31 -42 170 -71
36 -8 79 -19 95 -25 38 -15 271 -27 350 -18 33 3 97 9 142 11 46 3 87 8 93 12
6 4 9 -20 9 -63 -1 -46 5 -80 16 -102 9 -17 13 -35 10 -38 -12 -12 -388 -6
-412 6 -12 7 -57 14 -100 17 -127 9 -250 34 -345 70 -50 18 -92 36 -95 39 -6
5 -5 57 0 99 6 43 67 101 67 63z m1037 -127 c35 -13 41 -22 35 -59 -4 -30 -46
-80 -66 -80 -6 0 -24 19 -39 42 -55 85 -21 132 70 97z m554 -106 c1 -10 1 -20
1 -23 0 -3 9 -25 21 -50 15 -31 39 -56 77 -82 30 -21 71 -49 91 -64 62 -44
129 -79 174 -89 17 -4 44 -13 60 -20 17 -8 86 -33 155 -56 69 -23 130 -45 135
-49 6 -4 24 -10 40 -14 33 -8 73 -25 213 -92 50 -25 92 -47 92 -51 0 -12 -65
-148 -72 -151 -4 -2 -17 -23 -27 -47 -11 -25 -33 -64 -49 -87 -16 -24 -39 -64
-51 -90 -11 -26 -25 -50 -31 -53 -5 -3 -10 -15 -10 -26 0 -11 -7 -22 -15 -25
-8 -4 -13 -10 -10 -14 2 -4 -10 -25 -29 -46 -32 -37 -34 -38 -57 -22 -13 9
-40 31 -59 48 -19 17 -63 57 -98 88 -35 32 -89 82 -121 112 -32 30 -77 71
-101 90 -23 19 -54 46 -68 59 -15 13 -45 35 -67 50 -22 14 -43 31 -47 37 -4 6
-47 44 -95 84 -49 41 -97 83 -108 95 -22 24 -114 108 -219 200 -110 96 -128
115 -136 145 -8 27 -7 28 59 44 105 27 261 79 290 98 34 22 61 22 62 1z
m-1451 -99 c53 -15 206 -39 306 -48 27 -3 133 -8 237 -12 103 -4 187 -11 187
-16 0 -5 -15 -22 -33 -37 -18 -16 -52 -67 -76 -113 -45 -84 -102 -174 -151
-238 -15 -19 -37 -51 -47 -70 -48 -83 -66 -110 -74 -110 -5 0 -9 -7 -9 -15 0
-8 -4 -15 -9 -15 -5 0 -11 -8 -15 -17 -7 -22 -34 -68 -65 -111 -13 -19 -37
-61 -53 -95 -17 -34 -41 -76 -54 -94 -13 -17 -28 -43 -34 -58 -18 -47 -38 -42
-109 28 -36 36 -74 73 -83 82 -10 9 -18 20 -18 24 0 4 -11 21 -25 37 -14 16
-25 34 -25 41 0 7 -6 16 -14 20 -16 9 -56 78 -56 96 0 7 -13 26 -30 42 -16 16
-30 33 -30 38 0 10 -51 76 -97 126 l-22 25 47 55 c26 31 51 58 57 60 12 5 67
61 80 82 6 8 28 42 50 75 30 44 44 79 53 130 23 120 21 116 40 109 9 -4 42
-13 72 -21z m950 -97 c0 -58 -32 -106 -71 -107 -23 0 -49 43 -49 81 0 46 21
64 74 64 l46 1 0 -39z m-2619 -172 c4 -17 17 -64 29 -105 18 -63 21 -104 22
-260 1 -138 -3 -200 -15 -244 -8 -33 -13 -65 -11 -71 3 -7 -6 -33 -20 -60 -14
-26 -28 -62 -32 -81 -3 -19 -8 -34 -10 -34 -30 0 -194 -35 -209 -44 -11 -7
-45 -19 -75 -26 -30 -7 -86 -21 -124 -32 -37 -10 -71 -17 -74 -13 -3 3 10 22
30 43 19 20 41 45 49 55 8 10 21 26 29 36 9 9 22 31 29 48 7 17 22 40 33 50
11 9 26 31 34 48 8 16 21 41 29 55 8 14 15 35 15 46 0 12 7 27 15 34 12 10 85
152 85 166 0 2 12 29 26 60 32 70 74 197 76 232 1 15 8 38 15 52 7 14 13 38
13 53 0 39 32 33 41 -8z m4899 -172 c45 -49 162 -148 183 -156 7 -2 9 -7 5
-11 -3 -4 -15 -3 -26 3 -12 6 -37 11 -56 11 -19 0 -40 6 -46 13 -52 62 -120
160 -120 172 0 25 14 17 60 -32z m-544 -59 c-23 -83 -67 -187 -83 -197 -7 -4
-13 -13 -13 -18 0 -6 -16 -44 -35 -85 -19 -41 -35 -76 -35 -79 -1 -2 -16 -34
-35 -70 -19 -36 -35 -70 -35 -75 0 -17 -100 -180 -111 -180 -6 0 -28 14 -50
32 -32 26 -38 34 -26 43 19 14 37 50 37 73 0 11 7 26 16 33 17 14 80 120 77
130 -1 3 9 18 23 34 13 15 24 32 24 37 0 4 16 31 35 58 19 27 35 52 35 55 0 3
11 20 25 39 14 18 25 40 25 49 0 9 4 19 10 22 5 3 22 32 36 63 45 99 49 107
59 114 5 4 16 1 24 -6 11 -12 10 -23 -3 -72z m143 45 c39 -47 35 -60 -8 -29
-20 14 -31 30 -31 46 0 13 1 24 3 24 2 0 18 -18 36 -41z m-3329 -71 c30 -35
68 -77 87 -94 18 -17 33 -35 33 -40 0 -5 17 -27 37 -49 21 -22 39 -49 40 -59
8 -49 116 -191 240 -314 81 -81 92 -96 83 -112 -22 -41 -67 -14 -155 94 -22
27 -50 59 -62 71 -13 12 -23 27 -23 34 0 6 -4 11 -9 11 -5 0 -17 13 -28 29
-30 47 -75 101 -137 165 -51 52 -160 187 -177 220 -31 59 -31 59 -18 82 7 13
18 24 24 24 7 0 36 -28 65 -62z m4869 -539 l26 -1 -25 -7 c-17 -5 -37 -1 -62
12 -48 24 -49 32 -2 12 20 -8 48 -15 63 -16z m-6879 -178 c0 -4 -16 -29 -36
-55 -35 -46 -142 -112 -167 -103 -7 2 2 11 19 20 17 9 39 27 48 41 9 15 23 26
30 26 8 0 16 4 18 9 2 8 76 68 86 70 1 1 2 -3 2 -8z"/>
<path d="M6537 5373 c-4 -3 -33 -7 -64 -9 -81 -4 -149 -18 -208 -40 -41 -16
-51 -24 -53 -47 -3 -28 24 -50 37 -30 3 6 31 21 61 34 43 19 70 24 125 22 98
-3 133 4 140 28 9 29 -20 61 -38 42z"/>
<path d="M4429 5336 c-3 -3 -50 -9 -105 -12 -107 -7 -111 -7 -136 -18 -9 -4
-22 -5 -28 -1 -13 8 -40 -12 -40 -31 0 -17 78 -19 130 -3 19 5 118 11 220 12
160 2 185 5 188 19 2 8 -5 19 -15 22 -24 10 -207 20 -214 12z"/>
<path d="M5742 4878 c-17 -17 -15 -31 12 -134 28 -104 41 -140 55 -149 6 -3
11 -13 11 -21 0 -8 4 -20 9 -27 38 -48 89 -101 113 -118 25 -18 29 -19 34 -5
4 11 -10 36 -40 70 -25 30 -46 58 -46 63 0 4 -9 25 -20 46 -11 20 -19 40 -18
44 0 5 -4 22 -11 38 -7 17 -23 68 -35 115 -23 85 -38 104 -64 78z"/>
<path d="M6016 4150 c-32 -73 -51 -102 -110 -163 -98 -102 -104 -110 -99 -141
7 -34 19 -33 51 5 15 17 45 48 67 68 126 115 147 144 166 230 11 53 1 91 -24
91 -7 0 -30 -40 -51 -90z"/>
<path d="M5638 3925 c-12 -15 -38 -34 -56 -42 -36 -15 -40 -38 -10 -56 12 -8
25 -5 52 14 20 13 36 28 36 33 0 5 8 18 17 28 15 17 15 20 1 34 -15 15 -18 14
-40 -11z"/>
<path d="M5945 3380 c-3 -5 -13 -10 -21 -10 -8 0 -24 -8 -35 -19 -17 -16 -38
-19 -147 -21 -70 -1 -136 -1 -147 -1 -52 2 -150 -25 -279 -77 l-141 -56 -115
1 c-63 1 -126 3 -140 5 -65 9 -3 -79 72 -102 43 -13 298 -24 331 -14 9 3 17 9
17 14 0 14 -32 21 -110 26 -77 5 -109 14 -50 14 18 0 66 16 106 35 40 19 80
35 89 35 9 0 25 5 36 11 51 27 140 42 252 43 64 1 117 0 117 -1 0 -1 -25 -18
-55 -38 -30 -19 -55 -40 -55 -46 0 -21 91 1 129 31 20 16 47 32 61 35 14 3 50
28 79 55 46 43 51 51 41 69 -12 23 -25 27 -35 11z"/>
<path d="M5605 2943 c-44 -24 -91 -33 -172 -34 -40 0 -73 -4 -73 -9 0 -36 118
-51 206 -25 71 20 84 30 84 61 0 28 -5 29 -45 7z"/>
<path d="M8636 8113 c-6 -14 -5 -15 5 -6 7 7 10 15 7 18 -3 3 -9 -2 -12 -12z"/>
<path d="M8276 8013 c-3 -3 -51 -7 -106 -9 -67 -2 -107 -7 -121 -17 -13 -10
-17 -17 -9 -22 18 -11 164 -13 178 -2 8 6 17 5 27 -3 9 -7 37 -11 72 -9 32 2
63 0 69 -3 6 -4 42 -10 80 -14 92 -9 162 -25 264 -63 90 -34 105 -32 18 3 -46
18 -53 25 -61 58 -8 35 -10 36 -75 48 -37 7 -89 14 -117 15 -27 2 -57 5 -65 8
-25 9 -147 17 -154 10z"/>
<path d="M8854 7815 c20 -14 41 -25 46 -25 6 0 15 -9 22 -20 7 -11 17 -20 22
-20 11 0 76 -71 76 -82 0 -5 -17 -8 -39 -8 -101 0 -134 -26 -133 -108 1 -43
22 -101 52 -137 6 -8 9 -18 7 -22 -3 -5 6 -26 19 -48 23 -38 24 -38 18 -10 -4
17 -24 64 -44 105 -53 106 -55 115 -31 139 20 20 68 30 57 12 -4 -5 3 -7 15
-4 16 5 18 8 7 15 -8 6 9 7 47 4 33 -3 70 -5 83 -6 32 0 17 -20 -16 -21 -24
-2 -25 -2 -4 -6 50 -10 65 47 27 103 -11 16 -18 33 -17 37 1 5 -2 6 -8 2 -5
-3 -10 1 -10 9 0 8 -5 18 -12 22 -7 5 -8 3 -3 -6 4 -7 -13 2 -39 20 -39 26
-156 80 -174 80 -3 0 12 -11 32 -25z"/>
<path d="M9000 7786 c0 -2 7 -9 15 -16 13 -11 14 -10 9 4 -5 14 -24 23 -24 12z"/>
<path d="M8983 7583 c9 -2 23 -2 30 0 6 3 -1 5 -18 5 -16 0 -22 -2 -12 -5z"/>
<path d="M1222 7471 c-20 -14 -58 -32 -84 -41 -47 -15 -46 -15 98 -14 152 2
222 -11 320 -57 22 -10 47 -19 56 -19 9 0 21 -7 28 -15 7 -8 19 -15 27 -15 18
0 70 -29 95 -52 24 -23 48 -23 48 0 0 22 -21 43 -74 71 -22 11 -42 24 -45 28
-18 25 -234 117 -299 128 -94 15 -131 12 -170 -14z"/>
<path d="M620 7320 c-9 -6 -10 -10 -3 -10 6 0 15 5 18 10 8 12 4 12 -15 0z"/>
<path d="M580 7253 c-8 -29 -17 -53 -22 -53 -4 0 -5 -7 -2 -15 11 -27 -6 -64
-36 -80 -28 -14 -123 -43 -165 -50 -33 -5 -98 -35 -131 -61 l-32 -23 4 22 c4
19 3 19 -6 -3 -6 -14 -11 -47 -12 -75 0 -46 4 -72 27 -174 6 -25 5 -32 -3 -27
-8 5 -12 -1 -12 -16 0 -18 2 -20 10 -8 6 9 10 10 10 3 0 -30 38 -34 132 -13
58 13 94 16 96 10 2 -5 8 -10 13 -10 6 0 8 3 6 8 -3 4 5 8 18 8 12 1 54 22 92
47 91 60 260 124 285 108 12 -7 25 -8 44 -1 15 6 29 9 31 6 6 -6 -73 -56 -88
-56 -6 0 -17 -7 -25 -15 -9 -8 -11 -15 -6 -15 22 0 -2 -40 -39 -64 -21 -15
-39 -29 -39 -32 0 -6 18 4 40 21 28 23 145 83 205 106 33 12 76 33 95 46 19
12 44 23 56 23 12 0 24 6 27 14 3 7 34 19 71 26 63 12 86 24 72 38 -11 10 -90
11 -109 0 -13 -7 -23 -6 -30 1 -9 9 -52 6 -87 -6 -8 -3 -51 -7 -95 -9 -91 -4
-339 -58 -370 -80 -11 -8 -38 -28 -60 -44 -53 -40 -90 -55 -203 -86 -83 -22
-97 -23 -110 -11 -11 12 -12 19 -2 38 9 15 11 46 6 96 -4 56 -2 81 9 103 20
38 87 90 118 90 14 0 29 5 32 10 3 6 21 10 38 11 18 0 55 13 82 28 67 37 97
96 86 167 l-7 49 -14 -52z m270 -473 c0 -5 -7 -10 -16 -10 -8 0 -12 5 -9 10 3
6 10 10 16 10 5 0 9 -4 9 -10z"/>
<path d="M8953 7265 c0 -22 2 -30 4 -17 2 12 2 30 0 40 -3 9 -5 -1 -4 -23z"/>
<path d="M8858 7249 c-25 -14 -22 -84 5 -115 13 -15 28 -24 34 -21 9 6 53 89
53 101 0 11 -80 42 -92 35z"/>
<path d="M348 7103 c6 -2 18 -2 25 0 6 3 1 5 -13 5 -14 0 -19 -2 -12 -5z"/>
<path d="M198 6643 c5 -21 7 -23 10 -9 2 10 0 22 -6 28 -6 6 -7 0 -4 -19z"/>
<path d="M526 6546 c-71 -49 -146 -133 -146 -163 0 -6 -10 -14 -22 -16 -13 -2
2 -5 32 -6 30 0 71 -6 90 -12 19 -5 48 -12 64 -14 52 -8 53 -18 3 -118 -43
-86 -76 -194 -56 -181 5 3 9 11 9 18 0 8 7 19 15 26 8 7 15 21 15 31 0 11 5
19 10 19 6 0 10 6 10 13 0 7 7 22 15 32 8 11 27 38 41 59 24 37 25 41 12 84
-16 55 -45 84 -106 107 -26 10 -50 21 -55 25 -10 9 58 79 111 112 36 24 51 38
39 38 -2 0 -38 -24 -81 -54z"/>
<path d="M415 6499 c-4 -6 -5 -12 -2 -15 2 -3 7 2 10 11 7 17 1 20 -8 4z"/>
<path d="M514 5934 c19 -34 22 -44 10 -40 -8 3 -12 2 -9 -4 3 -6 16 -10 29
-10 29 0 66 -39 67 -71 0 -22 1 -23 10 -4 7 16 8 14 3 -10 -3 -16 -12 -43 -20
-59 -15 -31 -20 -61 -6 -39 4 6 7 -14 8 -45 0 -32 3 -68 7 -82 3 -14 6 -28 6
-32 1 -5 7 -8 14 -8 6 0 21 -27 31 -60 11 -33 23 -60 27 -60 5 0 14 -18 20
-40 22 -73 33 -30 19 74 -14 110 -35 151 -79 161 -17 4 -31 11 -31 16 0 25 40
108 63 131 32 32 34 49 8 72 -11 10 -18 23 -15 29 2 7 0 17 -4 22 -14 20 -99
74 -125 80 -15 4 -30 11 -33 16 -3 5 -10 9 -15 9 -6 0 1 -21 15 -46z"/>
<path d="M568 5543 c7 -3 16 -2 19 1 4 3 -2 6 -13 5 -11 0 -14 -3 -6 -6z"/>
<path d="M5565 269 c-4 -13 -9 -46 -10 -75 -2 -29 -5 -56 -8 -61 -2 -4 -7 -36
-11 -70 l-7 -63 30 0 c21 0 30 5 31 18 6 134 3 266 -7 269 -6 2 -15 -6 -18
-18z"/>
<path d="M5241 51 c-10 -7 -11 -13 -2 -30 9 -16 21 -21 51 -21 44 0 46 17 5
44 -28 18 -35 19 -54 7z"/>
</g>
</svg>
